<?xml version="1.0" encoding="UTF-8" standalone="no"?>
<!-- Created with Inkscape (http://www.inkscape.org/) -->

<svg
   width="64mm"
   height="63.999996mm"
   viewBox="0 0 64.000001 63.999995"
   version="1.1"
   id="svg5"
   inkscape:version="1.1 (c68e22c387, 2021-05-23)"
   sodipodi:docname="logo.svg"
   xmlns:inkscape="http://www.inkscape.org/namespaces/inkscape"
   xmlns:sodipodi="http://sodipodi.sourceforge.net/DTD/sodipodi-0.dtd"
   xmlns="http://www.w3.org/2000/svg"
   xmlns:svg="http://www.w3.org/2000/svg">
  <sodipodi:namedview
     id="namedview7"
     pagecolor="#ffffff"
     bordercolor="#cccccc"
     borderopacity="1"
     inkscape:pageshadow="0"
     inkscape:pageopacity="1"
     inkscape:pagecheckerboard="0"
     inkscape:document-units="mm"
     showgrid="false"
     inkscape:zoom="1.060799"
     inkscape:cx="388.38647"
     inkscape:cy="148.00164"
     inkscape:window-width="1920"
     inkscape:window-height="1046"
     inkscape:window-x="-11"
     inkscape:window-y="-11"
     inkscape:window-maximized="1"
     inkscape:current-layer="layer1" />
  <defs
     id="defs2">
    <inkscape:path-effect
       effect="fillet_chamfer"
       id="path-effect12251"
       is_visible="true"
       lpeversion="1"
       satellites_param="F,0,0,1,0,0,0,1 @ F,0,0,1,0,0,0,1 @ F,0,0,1,0,0,0,1 @ F,0,0,1,0,0,0,1 @ F,0,0,1,0,0,0,1 @ F,0,0,1,0,0,0,1 @ F,0,0,1,0,0,0,1 @ F,0,0,1,0,0,0,1"
       unit="px"
       method="auto"
       mode="F"
       radius="0"
       chamfer_steps="1"
       flexible="false"
       use_knot_distance="true"
       apply_no_radius="true"
       apply_with_radius="true"
       only_selected="false"
       hide_knots="false" />
    <inkscape:path-effect
       effect="fillet_chamfer"
       id="path-effect12249"
       is_visible="true"
       lpeversion="1"
       satellites_param="F,0,0,1,0,4.2333333,0,1 @ F,0,0,1,0,4.2333333,0,1 @ F,0,0,1,0,4.2333333,0,1 @ F,0,0,1,0,4.2333333,0,1"
       unit="px"
       method="auto"
       mode="F"
       radius="16"
       chamfer_steps="1"
       flexible="false"
       use_knot_distance="true"
       apply_no_radius="true"
       apply_with_radius="true"
       only_selected="false"
       hide_knots="false" />
  </defs>
  <g
     inkscape:label="Layer 1"
     inkscape:groupmode="layer"
     id="layer1"
     transform="translate(-36.635429,-98.47623)">
    <path
       style="fill:#004ab3;fill-opacity:1;stroke:none;stroke-width:1.29345"
       id="rect12167"
       width="62.706551"
       height="62.706547"
       x="37.282154"
       y="99.122955"
       inkscape:path-effect="#path-effect12249"
       d="m 41.515487,99.122955 54.239884,0 a 4.2333333,4.2333333 45 0 1 4.233334,4.233335 v 54.23988 a 4.2333333,4.2333333 135 0 1 -4.233334,4.23333 H 41.515487 a 4.2333333,4.2333333 45 0 1 -4.233333,-4.23333 v -54.23988 a 4.2333333,4.2333333 135 0 1 4.233333,-4.233335 z"
       sodipodi:type="rect" />
    <g
       aria-label="C4Benn"
       id="text1112"
       style="font-weight:bold;font-size:6.35px;line-height:1.25;font-family:'Comic Sans MS';-inkscape-font-specification:'Comic Sans MS, Bold';font-variant-ligatures:none;fill:#ffffff;fill-opacity:1;stroke:#ffffff;stroke-width:0.264583;stroke-opacity:1"
       transform="matrix(0.89321437,0,0,0.93690101,-104.04996,29.221034)">
      <g
         aria-label="C4Benn "
         id="text2384"
         style="font-size:16.9333px;font-family:Ephesis;-inkscape-font-specification:'Ephesis Bold';fill:#ffffff;fill-opacity:1;stroke:#ffffff;stroke-width:0.0700042;stroke-opacity:1"
         transform="matrix(0.94418798,0,0,3.8243257,15.674859,-397.10815)">
        <path
           d="m 163.34111,138.76042 q -1.69333,0 -2.69239,-1.10067 -0.9144,-1.01599 -0.9144,-2.57386 0,-1.15146 0.52493,-2.30293 0.94827,-2.06586 2.72626,-3.74226 1.79493,-1.67639 4.45346,-2.72626 1.27,-0.508 2.4384,-0.508 1.15146,0 1.86266,0.49107 0.7112,0.47413 0.7112,1.28693 0,0.4064 -0.13547,0.8636 -0.11853,0.44026 -0.508,0.93133 -0.93133,1.23613 -2.18439,2.01506 -0.64347,0.37254 -1.20227,0.508 -0.54186,0.13547 -1.03293,0.13547 -1.20226,0 -1.38853,-1.15147 v -0.0677 q 0,-0.22013 0.254,-0.22013 0.23707,0 0.254,0.22013 0.13547,0.8636 0.94826,0.8636 0.79587,0 1.8288,-0.7112 0.54187,-0.3556 0.98213,-0.77893 0.44027,-0.44027 0.8128,-0.93133 0.79587,-1.10067 0.79587,-1.84573 0,-1.20227 -1.71027,-1.20227 -1.16839,0 -2.43839,0.57574 -1.28693,0.57573 -2.3876,1.33773 -1.10066,0.74506 -2.01506,1.69333 -1.38853,1.43933 -2.0828,3.01412 -0.508,1.13453 -0.508,2.26907 0,1.30386 0.67734,2.08279 0.79586,0.89747 2.30293,0.89747 0.32173,0 0.67733,-0.0508 0.3556,-0.0339 0.74506,-0.11854 1.60867,-0.3556 3.82693,-1.74413 1.7272,-1.06679 2.52306,-1.81186 0.54187,-0.508 0.72813,-0.508 0.0339,0 0.0339,0.0339 0,0.11853 -0.22013,0.32173 -0.82974,0.72813 -1.45627,1.25306 -0.62653,0.52494 -1.03293,0.8128 -0.98213,0.7112 -1.94733,1.20227 -0.94826,0.49106 -1.87959,0.82973 -1.28694,0.4572 -2.37067,0.4572 z"
           id="path12012"
           style="fill:#ffffff;fill-opacity:1;stroke:#ffffff;stroke-opacity:1" />
        <path
           d="m 177.85294,137.27029 q -0.0847,0 -0.1524,-0.0677 -0.32173,-0.44026 -0.32173,-0.89746 0,-0.89747 0.0847,-1.69333 0.1016,-0.8128 0.3048,-1.54093 -1.4224,-0.37253 -2.35373,-0.37253 -0.67733,0 -1.9304,0.4064 -1.27,0.4064 -1.35466,0.4064 -0.16934,0 -0.3048,-0.16934 -0.13547,-0.18626 -0.13547,-0.38946 0,-0.33867 0.28787,-0.4064 0.18626,-0.0677 0.42333,-0.11854 0.254,-0.0508 0.52493,-0.11853 5.01226,-2.76013 8.04332,-5.58799 l 0.11853,-0.22013 q 0.0508,-0.0847 0.27094,-0.0847 0.22013,0 0.4064,0.1016 0.20319,0.0847 0.15239,0.18627 l -1.76106,3.01413 q -1.03293,1.77799 -1.6256,3.09879 0.6604,0.2032 1.2192,0.32173 0.5588,0.1016 0.98213,0.1016 0.47414,0 0.8636,-0.27093 0.38947,-0.28787 0.38947,-0.77893 0,-0.16934 -0.0677,-0.38947 -0.0677,-0.23706 -0.0677,-0.3048 0,-0.0847 0.0847,-0.0847 0.13546,0 0.23706,0.1524 0.508,0.66039 0.508,1.11759 0,0.9144 -1.94733,0.9144 -0.4572,0 -1.04986,-0.1016 -0.59267,-0.1016 -1.33773,-0.27093 -0.3048,0.762 -0.47413,1.54093 -0.1524,0.762 -0.1524,1.54093 0,0.3048 0.27093,0.67733 0.0339,0.0677 0.0339,0.11853 0,0.16934 -0.16934,0.16934 z m 0.0508,-4.67359 q 0.23707,-0.74507 0.67733,-1.6764 0.4572,-0.93133 1.13454,-2.06586 l 0.47413,-0.79587 q -1.99813,1.65947 -6.26532,4.11479 0.38946,-0.0339 0.74506,-0.0677 0.3556,-0.0339 0.67733,-0.0339 0.47414,0 1.10067,0.13547 0.64346,0.13547 1.45626,0.38947 z"
           id="path12014"
           style="fill:#ffffff;fill-opacity:1;stroke:#ffffff;stroke-opacity:1" />
        <path
           d="m 184.57545,137.96455 q -1.50706,0 -1.50706,-2.08279 0,-1.08373 0.42333,-2.286 0.38947,-1.15146 0.89747,-1.65946 0.32173,-0.32173 0.52493,-0.32173 0.22013,0 0.33867,0.42333 0.11853,0.4064 0.22013,0.84666 0.54186,1.94733 1.7272,3.0988 1.49013,-1.38853 3.14959,-3.79306 l -0.7112,-0.0847 q -0.44026,-0.1016 -0.44026,-0.33866 0,-0.28787 0.40639,-0.23707 0.18627,0.0339 0.4572,0.0508 0.28787,0.0169 0.6604,0.0339 0.42333,-0.62654 0.7112,-1.1176 0.3048,-0.49107 0.47413,-0.8636 0.32174,-0.72813 0.94827,-1.33773 0.5588,-0.508 0.89746,-0.508 0.18627,0 0.18627,0.2032 0,0.33867 -0.49107,1.08373 -0.38946,0.62653 -0.84666,1.27 -0.4572,0.62653 -0.94827,1.28693 0.9144,-0.0508 1.8288,-0.23707 0.9144,-0.18626 1.69333,-0.52493 0.77893,-0.3556 1.27,-0.89746 0.508,-0.54187 0.57573,-1.3208 0.0339,-0.49107 -0.22013,-0.93133 -0.254,-0.44027 -0.74507,-0.8128 -1.10066,-0.88053 -3.04799,-1.04987 -0.47413,-0.0508 -0.99907,-0.0508 -2.62466,0 -4.80905,1.0668 -2.16747,1.04987 -2.16747,2.21826 0,0.64347 0.84667,1.13454 0.33866,0.13546 0.33866,0.20319 0,0.0847 -0.27093,0.0847 -0.49106,0 -0.79586,-0.11853 -1.30387,-0.64347 -1.30387,-1.54093 0,-1.27 2.21826,-2.31986 2.35373,-1.10067 5.46946,-1.10067 0.57573,0 1.38853,0.0677 0.8128,0.0508 1.6764,0.22014 0.8636,0.16933 1.60866,0.52493 0.762,0.33867 1.23613,0.9144 0.47413,0.57573 0.47413,1.45626 0,0.69427 -0.40639,1.23613 -0.38947,0.52493 -1.04987,0.9144 -0.64346,0.38947 -1.43933,0.6604 -0.77893,0.254 -1.5748,0.4064 -0.77893,0.13547 -1.42239,0.16933 0.84666,0.0508 1.79493,0.13547 0.94826,0.0847 1.77799,0.28786 0.84667,0.18627 1.3716,0.5588 0.54187,0.37254 0.54187,1.016 0,0.67733 -0.33867,1.3208 -0.32173,0.64346 -1.04986,1.23613 -1.71027,1.40546 -4.53813,1.40546 -0.59266,0 -1.23613,-0.0677 -0.62653,-0.0677 -1.30386,-0.2032 -1.08374,-0.23707 -2.04893,-1.08373 -1.54093,1.35466 -2.42147,1.35466 z m 6.84106,-0.47413 q 2.20133,0 3.74226,-1.1684 1.32079,-1.01599 1.32079,-2.03199 0,-0.57574 -0.47413,-0.9652 -0.4572,-0.38947 -1.1684,-0.6096 -0.69426,-0.22013 -1.45626,-0.32173 -0.74506,-0.1016 -1.35466,-0.11854 -0.6096,-0.0169 -0.84667,0 -0.59266,0.77894 -1.524,1.76107 -0.93133,0.98213 -2.21826,2.16746 0.82973,0.762 1.86267,1.016 1.06679,0.27093 2.11666,0.27093 z m -6.73946,-0.0508 q 0.84667,0 2.0828,-1.0668 -1.38853,-1.23613 -1.9304,-2.65853 -0.1016,-0.25399 -0.22013,-0.25399 -0.2032,0 -0.49106,0.69426 -0.22014,0.57573 -0.3556,1.28693 -0.0508,0.27093 -0.0508,0.5588 0,1.43933 0.96519,1.43933 z"
           id="path12016"
           style="fill:#ffffff;fill-opacity:1;stroke:#ffffff;stroke-opacity:1" />
        <path
           d="m 199.40901,137.11789 q -0.49106,0 -0.8636,-0.23707 -0.49106,-0.33866 -0.49106,-0.98213 0,-0.69426 0.59266,-1.69333 0.79587,-1.30386 2.3368,-2.28599 0.38946,-0.254 0.77893,-0.254 0.508,0 0.72813,0.32173 0.13547,0.18626 0.13547,0.42333 0,0.7112 -1.15147,1.55786 -0.33866,0.23707 -0.72813,0.44027 -0.37253,0.18627 -0.8128,0.27093 l -0.72813,0.1524 q -0.4064,0.72813 -0.4064,1.2192 0,0.67733 0.79587,0.67733 0.62653,0 1.52399,-0.52493 1.20227,-0.69427 2.06587,-1.9304 0.13546,-0.2032 0.254,-0.2032 0.0508,0 0.0508,0.0677 0,0.0847 -0.11854,0.254 -1.64253,2.47226 -3.70839,2.70932 -0.0677,0.0169 -0.13547,0.0169 -0.0508,0 -0.11853,0 z m 0,-2.57386 q 0.47413,0 1.2192,-0.42334 1.04986,-0.59266 1.4732,-1.52399 0.11853,-0.23707 0.11853,-0.38947 0,-0.1524 -0.11853,-0.1524 -0.22014,0 -0.89747,0.54187 -0.49106,0.42333 -0.9652,0.9144 -0.4572,0.47413 -0.88053,1.01599 -0.0169,0.0169 0.0508,0.0169 z"
           id="path12018"
           style="fill:#ffffff;fill-opacity:1;stroke:#ffffff;stroke-opacity:1" />
        <path
           d="m 206.35165,137.15175 q -0.37254,0.0339 -0.7112,-0.18626 -0.33867,-0.23707 -0.33867,-0.52493 0,-0.52494 0.99907,-2.01507 1.10066,-1.64253 1.10066,-1.89653 0,-0.1524 -0.1524,-0.16933 -0.49106,0.0339 -1.524,0.98213 -1.47319,1.3716 -2.76012,3.72533 -0.0339,0.0339 -0.18627,0.0339 -0.72813,0 -0.6604,-0.20319 0.18627,-0.49107 0.64347,-1.4732 0.47413,-0.98213 1.21919,-2.47226 0.508,-0.99907 1.03294,-0.99907 0.16933,0 0.22013,0.0847 0.0339,0.0508 -0.7112,1.45626 -0.3556,0.67733 -0.5588,1.08373 -0.2032,0.38947 -0.28786,0.508 0.28786,-0.28786 0.67733,-0.7112 0.4064,-0.42333 0.93133,-0.98213 0.82973,-0.93133 1.82879,-1.38853 0.23707,-0.1016 0.54187,-0.1016 0.69427,0 0.69427,0.508 0,0.32173 -0.32174,0.762 -1.82879,2.55693 -1.82879,3.43746 0,0.18627 0.11853,0.23707 0.27093,0.11853 1.33773,-0.5588 1.25306,-0.8128 2.1336,-2.01507 0.18626,-0.254 0.33866,-0.254 0.0508,0 0.0508,0.0339 0,0.0847 -0.1524,0.32173 -0.74506,1.1684 -2.06586,2.06587 -1.18533,0.77893 -1.60866,0.71119 z"
           id="path12020"
           style="fill:#ffffff;fill-opacity:1;stroke:#ffffff;stroke-opacity:1" />
        <path
           d="m 212.7524,137.15175 q -0.37253,0.0339 -0.7112,-0.18626 -0.33866,-0.23707 -0.33866,-0.52493 0,-0.52494 0.99906,-2.01507 1.10067,-1.64253 1.10067,-1.89653 0,-0.1524 -0.1524,-0.16933 -0.49107,0.0339 -1.524,0.98213 -1.4732,1.3716 -2.76013,3.72533 -0.0339,0.0339 -0.18626,0.0339 -0.72813,0 -0.6604,-0.20319 0.18626,-0.49107 0.64346,-1.4732 0.47414,-0.98213 1.2192,-2.47226 0.508,-0.99907 1.03293,-0.99907 0.16934,0 0.22014,0.0847 0.0339,0.0508 -0.7112,1.45626 -0.3556,0.67733 -0.5588,1.08373 -0.2032,0.38947 -0.28787,0.508 0.28787,-0.28786 0.67733,-0.7112 0.4064,-0.42333 0.93134,-0.98213 0.82973,-0.93133 1.82879,-1.38853 0.23707,-0.1016 0.54187,-0.1016 0.69426,0 0.69426,0.508 0,0.32173 -0.32173,0.762 -1.8288,2.55693 -1.8288,3.43746 0,0.18627 0.11854,0.23707 0.27093,0.11853 1.33773,-0.5588 1.25306,-0.8128 2.13359,-2.01507 0.18627,-0.254 0.33867,-0.254 0.0508,0 0.0508,0.0339 0,0.0847 -0.1524,0.32173 -0.74507,1.1684 -2.06586,2.06587 -1.18533,0.77893 -1.60867,0.71119 z"
           id="path12022"
           style="fill:#ffffff;fill-opacity:1;stroke:#ffffff;stroke-opacity:1" />
      </g>
    </g>
  </g>
</svg>
