<?xml version="1.0" encoding="UTF-8"?>
<!-- Created with Inkscape (http://www.inkscape.org/) -->
<svg width="64.327mm" height="64.482mm" version="1.1" viewBox="0 0 64.327 64.482" xmlns="http://www.w3.org/2000/svg">
 <g transform="translate(-159.69 -74.446)">
  <g stroke="#fff" stroke-width=".26458" style="font-variant-ligatures:none" aria-label="C4Benn">
   <g transform="matrix(.94419 0 0 3.8243 14.555 -398.18)" fill="#fff" stroke-width=".070004" aria-label="C4Benn ">
    <path d="m163.34 138.76q-1.6933 0-2.6924-1.1007-0.9144-1.016-0.9144-2.5739 0-1.1515 0.52493-2.3029 0.94827-2.0659 2.7263-3.7423 1.7949-1.6764 4.4535-2.7263 1.27-0.508 2.4384-0.508 1.1515 0 1.8627 0.49107 0.7112 0.47413 0.7112 1.2869 0 0.4064-0.13547 0.8636-0.11853 0.44026-0.508 0.93133-0.93133 1.2361-2.1844 2.0151-0.64347 0.37254-1.2023 0.508-0.54186 0.13547-1.0329 0.13547-1.2023 0-1.3885-1.1515v-0.0677q0-0.22013 0.254-0.22013 0.23707 0 0.254 0.22013 0.13547 0.8636 0.94826 0.8636 0.79587 0 1.8288-0.7112 0.54187-0.3556 0.98213-0.77893 0.44027-0.44027 0.8128-0.93133 0.79587-1.1007 0.79587-1.8457 0-1.2023-1.7103-1.2023-1.1684 0-2.4384 0.57574-1.2869 0.57573-2.3876 1.3377-1.1007 0.74506-2.0151 1.6933-1.3885 1.4393-2.0828 3.0141-0.508 1.1345-0.508 2.2691 0 1.3039 0.67734 2.0828 0.79586 0.89747 2.3029 0.89747 0.32173 0 0.67733-0.0508 0.3556-0.0339 0.74506-0.11854 1.6087-0.3556 3.8269-1.7441 1.7272-1.0668 2.5231-1.8119 0.54187-0.508 0.72813-0.508 0.0339 0 0.0339 0.0339 0 0.11853-0.22013 0.32173-0.82974 0.72813-1.4563 1.2531-0.62653 0.52494-1.0329 0.8128-0.98213 0.7112-1.9473 1.2023-0.94826 0.49106-1.8796 0.82973-1.2869 0.4572-2.3707 0.4572z"/>
    <path d="m177.85 137.27q-0.0847 0-0.1524-0.0677-0.32173-0.44026-0.32173-0.89746 0-0.89747 0.0847-1.6933 0.1016-0.8128 0.3048-1.5409-1.4224-0.37253-2.3537-0.37253-0.67733 0-1.9304 0.4064-1.27 0.4064-1.3547 0.4064-0.16934 0-0.3048-0.16934-0.13547-0.18626-0.13547-0.38946 0-0.33867 0.28787-0.4064 0.18626-0.0677 0.42333-0.11854 0.254-0.0508 0.52493-0.11853 5.0123-2.7601 8.0433-5.588l0.11853-0.22013q0.0508-0.0847 0.27094-0.0847 0.22013 0 0.4064 0.1016 0.20319 0.0847 0.15239 0.18627l-1.7611 3.0141q-1.0329 1.778-1.6256 3.0988 0.6604 0.2032 1.2192 0.32173 0.5588 0.1016 0.98213 0.1016 0.47414 0 0.8636-0.27093 0.38947-0.28787 0.38947-0.77893 0-0.16934-0.0677-0.38947-0.0677-0.23706-0.0677-0.3048 0-0.0847 0.0847-0.0847 0.13546 0 0.23706 0.1524 0.508 0.66039 0.508 1.1176 0 0.9144-1.9473 0.9144-0.4572 0-1.0499-0.1016-0.59267-0.1016-1.3377-0.27093-0.3048 0.762-0.47413 1.5409-0.1524 0.762-0.1524 1.5409 0 0.3048 0.27093 0.67733 0.0339 0.0677 0.0339 0.11853 0 0.16934-0.16934 0.16934zm0.0508-4.6736q0.23707-0.74507 0.67733-1.6764 0.4572-0.93133 1.1345-2.0659l0.47413-0.79587q-1.9981 1.6595-6.2653 4.1148 0.38946-0.0339 0.74506-0.0677 0.3556-0.0339 0.67733-0.0339 0.47414 0 1.1007 0.13547 0.64346 0.13547 1.4563 0.38947z"/>
    <path d="m184.58 137.96q-1.5071 0-1.5071-2.0828 0-1.0837 0.42333-2.286 0.38947-1.1515 0.89747-1.6595 0.32173-0.32173 0.52493-0.32173 0.22013 0 0.33867 0.42333 0.11853 0.4064 0.22013 0.84666 0.54186 1.9473 1.7272 3.0988 1.4901-1.3885 3.1496-3.7931l-0.7112-0.0847q-0.44026-0.1016-0.44026-0.33866 0-0.28787 0.40639-0.23707 0.18627 0.0339 0.4572 0.0508 0.28787 0.0169 0.6604 0.0339 0.42333-0.62654 0.7112-1.1176 0.3048-0.49107 0.47413-0.8636 0.32174-0.72813 0.94827-1.3377 0.5588-0.508 0.89746-0.508 0.18627 0 0.18627 0.2032 0 0.33867-0.49107 1.0837-0.38946 0.62653-0.84666 1.27-0.4572 0.62653-0.94827 1.2869 0.9144-0.0508 1.8288-0.23707 0.9144-0.18626 1.6933-0.52493 0.77893-0.3556 1.27-0.89746 0.508-0.54187 0.57573-1.3208 0.0339-0.49107-0.22013-0.93133-0.254-0.44027-0.74507-0.8128-1.1007-0.88053-3.048-1.0499-0.47413-0.0508-0.99907-0.0508-2.6247 0-4.809 1.0668-2.1675 1.0499-2.1675 2.2183 0 0.64347 0.84667 1.1345 0.33866 0.13546 0.33866 0.20319 0 0.0847-0.27093 0.0847-0.49106 0-0.79586-0.11853-1.3039-0.64347-1.3039-1.5409 0-1.27 2.2183-2.3199 2.3537-1.1007 5.4695-1.1007 0.57573 0 1.3885 0.0677 0.8128 0.0508 1.6764 0.22014 0.8636 0.16933 1.6087 0.52493 0.762 0.33867 1.2361 0.9144t0.47413 1.4563q0 0.69427-0.40639 1.2361-0.38947 0.52493-1.0499 0.9144-0.64346 0.38947-1.4393 0.6604-0.77893 0.254-1.5748 0.4064-0.77893 0.13547-1.4224 0.16933 0.84666 0.0508 1.7949 0.13547 0.94826 0.0847 1.778 0.28786 0.84667 0.18627 1.3716 0.5588 0.54187 0.37254 0.54187 1.016 0 0.67733-0.33867 1.3208-0.32173 0.64346-1.0499 1.2361-1.7103 1.4055-4.5381 1.4055-0.59266 0-1.2361-0.0677-0.62653-0.0677-1.3039-0.2032-1.0837-0.23707-2.0489-1.0837-1.5409 1.3547-2.4215 1.3547zm6.8411-0.47413q2.2013 0 3.7423-1.1684 1.3208-1.016 1.3208-2.032 0-0.57574-0.47413-0.9652-0.4572-0.38947-1.1684-0.6096-0.69426-0.22013-1.4563-0.32173-0.74506-0.1016-1.3547-0.11854-0.6096-0.0169-0.84667 0-0.59266 0.77894-1.524 1.7611-0.93133 0.98213-2.2183 2.1675 0.82973 0.762 1.8627 1.016 1.0668 0.27093 2.1167 0.27093zm-6.7395-0.0508q0.84667 0 2.0828-1.0668-1.3885-1.2361-1.9304-2.6585-0.1016-0.25399-0.22013-0.25399-0.2032 0-0.49106 0.69426-0.22014 0.57573-0.3556 1.2869-0.0508 0.27093-0.0508 0.5588 0 1.4393 0.96519 1.4393z"/>
    <path d="m199.41 137.12q-0.49106 0-0.8636-0.23707-0.49106-0.33866-0.49106-0.98213 0-0.69426 0.59266-1.6933 0.79587-1.3039 2.3368-2.286 0.38946-0.254 0.77893-0.254 0.508 0 0.72813 0.32173 0.13547 0.18626 0.13547 0.42333 0 0.7112-1.1515 1.5579-0.33866 0.23707-0.72813 0.44027-0.37253 0.18627-0.8128 0.27093l-0.72813 0.1524q-0.4064 0.72813-0.4064 1.2192 0 0.67733 0.79587 0.67733 0.62653 0 1.524-0.52493 1.2023-0.69427 2.0659-1.9304 0.13546-0.2032 0.254-0.2032 0.0508 0 0.0508 0.0677 0 0.0847-0.11854 0.254-1.6425 2.4723-3.7084 2.7093-0.0677 0.0169-0.13547 0.0169-0.0508 0-0.11853 0zm0-2.5739q0.47413 0 1.2192-0.42334 1.0499-0.59266 1.4732-1.524 0.11853-0.23707 0.11853-0.38947t-0.11853-0.1524q-0.22014 0-0.89747 0.54187-0.49106 0.42333-0.9652 0.9144-0.4572 0.47413-0.88053 1.016-0.0169 0.0169 0.0508 0.0169z"/>
    <path d="m206.35 137.15q-0.37254 0.0339-0.7112-0.18626-0.33867-0.23707-0.33867-0.52493 0-0.52494 0.99907-2.0151 1.1007-1.6425 1.1007-1.8965 0-0.1524-0.1524-0.16933-0.49106 0.0339-1.524 0.98213-1.4732 1.3716-2.7601 3.7253-0.0339 0.0339-0.18627 0.0339-0.72813 0-0.6604-0.20319 0.18627-0.49107 0.64347-1.4732 0.47413-0.98213 1.2192-2.4723 0.508-0.99907 1.0329-0.99907 0.16933 0 0.22013 0.0847 0.0339 0.0508-0.7112 1.4563-0.3556 0.67733-0.5588 1.0837-0.2032 0.38947-0.28786 0.508 0.28786-0.28786 0.67733-0.7112 0.4064-0.42333 0.93133-0.98213 0.82973-0.93133 1.8288-1.3885 0.23707-0.1016 0.54187-0.1016 0.69427 0 0.69427 0.508 0 0.32173-0.32174 0.762-1.8288 2.5569-1.8288 3.4375 0 0.18627 0.11853 0.23707 0.27093 0.11853 1.3377-0.5588 1.2531-0.8128 2.1336-2.0151 0.18626-0.254 0.33866-0.254 0.0508 0 0.0508 0.0339 0 0.0847-0.1524 0.32173-0.74506 1.1684-2.0659 2.0659-1.1853 0.77893-1.6087 0.71119z"/>
    <path d="m212.75 137.15q-0.37253 0.0339-0.7112-0.18626-0.33866-0.23707-0.33866-0.52493 0-0.52494 0.99906-2.0151 1.1007-1.6425 1.1007-1.8965 0-0.1524-0.1524-0.16933-0.49107 0.0339-1.524 0.98213-1.4732 1.3716-2.7601 3.7253-0.0339 0.0339-0.18626 0.0339-0.72813 0-0.6604-0.20319 0.18626-0.49107 0.64346-1.4732 0.47414-0.98213 1.2192-2.4723 0.508-0.99907 1.0329-0.99907 0.16934 0 0.22014 0.0847 0.0339 0.0508-0.7112 1.4563-0.3556 0.67733-0.5588 1.0837-0.2032 0.38947-0.28787 0.508 0.28787-0.28786 0.67733-0.7112 0.4064-0.42333 0.93134-0.98213 0.82973-0.93133 1.8288-1.3885 0.23707-0.1016 0.54187-0.1016 0.69426 0 0.69426 0.508 0 0.32173-0.32173 0.762-1.8288 2.5569-1.8288 3.4375 0 0.18627 0.11854 0.23707 0.27093 0.11853 1.3377-0.5588 1.2531-0.8128 2.1336-2.0151 0.18627-0.254 0.33867-0.254 0.0508 0 0.0508 0.0339 0 0.0847-0.1524 0.32173-0.74507 1.1684-2.0659 2.0659-1.1853 0.77893-1.6087 0.71119z"/>
   </g>
  </g>
 </g>
</svg>
